<svg width="97" height="97" viewBox="0 0 97 97" fill="none" xmlns="http://www.w3.org/2000/svg">
<rect width="96" height="97" rx="15" fill="white"/>
<path d="M49.68 12.68C49.68 13.76 49.41 14.9 48.87 16.1C48.39 17.3 47.79 18.47 47.07 19.61C46.35 20.75 45.54 21.8 44.64 22.76C43.74 23.66 42.87 24.41 42.03 25.01C39.75 26.69 37.23 28.31 34.47 29.87C31.77 31.37 29.13 32.63 26.55 33.65C26.43 33.71 26.16 33.83 25.74 34.01C25.32 34.13 25.05 34.13 24.93 34.01C24.81 33.89 24.9 33.68 25.2 33.38C25.5 33.02 25.74 32.78 25.92 32.66C26.34 32.24 26.88 31.73 27.54 31.13C28.26 30.53 28.98 29.96 29.7 29.42C30.48 28.82 31.23 28.25 31.95 27.71C32.73 27.17 33.42 26.75 34.02 26.45C34.44 26.21 35.37 25.55 36.81 24.47C38.31 23.33 39.9 22.04 41.58 20.6C43.26 19.1 44.82 17.6 46.26 16.1C47.76 14.6 48.69 13.37 49.05 12.41C49.29 11.99 49.47 11.84 49.59 11.96C49.65 12.02 49.68 12.14 49.68 12.32C49.68 12.5 49.68 12.62 49.68 12.68ZM10.44 46.07C12.66 46.37 14.82 46.82 16.92 47.42C19.02 47.96 20.97 49.01 22.77 50.57C24.87 52.37 27.03 54.38 29.25 56.6C31.47 58.76 33.51 60.89 35.37 62.99C35.49 63.11 35.67 63.35 35.91 63.71C36.15 64.01 36.21 64.25 36.09 64.43C36.03 64.55 35.79 64.55 35.37 64.43C35.01 64.25 34.77 64.1 34.65 63.98C34.11 63.68 33.45 63.29 32.67 62.81C31.95 62.27 31.2 61.7 30.42 61.1C29.64 60.5 28.89 59.93 28.17 59.39C27.45 58.79 26.85 58.25 26.37 57.77C26.07 57.47 25.26 56.81 23.94 55.79C22.68 54.71 21.18 53.6 19.44 52.46C17.7 51.26 15.87 50.15 13.95 49.13C12.09 48.11 10.41 47.42 8.91 47.06C8.43 46.94 8.19 46.64 8.19 46.16C8.25 45.68 8.31 45.26 8.37 44.9C8.49 44.18 8.64 43.28 8.82 42.2C9.06 41.12 9.27 40.01 9.45 38.87C9.69 37.73 9.93 36.62 10.17 35.54C10.41 34.46 10.65 33.53 10.89 32.75C11.07 32.21 11.4 30.86 11.88 28.7C12.36 26.54 12.84 24.14 13.32 21.5C13.8 18.86 14.16 16.31 14.4 13.85C14.64 11.39 14.61 9.58999 14.31 8.45C14.19 7.91 14.22 7.63999 14.4 7.63999C14.52 7.63999 14.61 7.73 14.67 7.91C14.73 8.03 14.82 8.15 14.94 8.27C15.6 9.29 16.11 10.52 16.47 11.96C16.83 13.4 17.04 14.93 17.1 16.55C17.22 18.11 17.19 19.67 17.01 21.23C16.89 22.79 16.68 24.14 16.38 25.28C15.72 27.8 14.97 30.32 14.13 32.84C13.29 35.3 12.39 37.79 11.43 40.31C12.09 39.35 12.72 38.45 13.32 37.61C13.92 36.71 14.46 35.87 14.94 35.09L15.03 34.64C15.63 31.76 16.35 28.85 17.19 25.91C18.09 22.97 18.6 19.79 18.72 16.37C18.84 16.07 18.93 15.92 18.99 15.92C19.05 15.92 19.11 15.98 19.17 16.1C19.23 16.22 19.29 16.34 19.35 16.46C20.01 18.08 20.25 20.21 20.07 22.85C19.89 25.43 19.53 28.13 18.99 30.95C19.71 30.35 20.4 29.78 21.06 29.24C21.78 28.7 22.56 28.16 23.4 27.62C25.68 26.06 28.02 24.56 30.42 23.12C32.82 21.68 35.13 20.21 37.35 18.71C39.63 17.21 41.73 15.68 43.65 14.12C45.57 12.56 47.22 10.85 48.6 8.99C48.78 8.81 48.9 8.78 48.96 8.89999C49.02 8.89999 49.02 8.99 48.96 9.17C48.96 9.29 48.96 9.38 48.96 9.44C48.06 11.9 46.68 14.09 44.82 16.01C43.02 17.87 40.95 19.61 38.61 21.23C36.33 22.85 33.93 24.38 31.41 25.82C28.89 27.26 26.49 28.79 24.21 30.41C21.39 32.33 18.75 34.61 16.29 37.25C13.83 39.89 11.88 42.83 10.44 46.07ZM14.76 45.53C14.46 45.53 14.04 45.53 13.5 45.53C13.02 45.47 12.57 45.47 12.15 45.53C12.39 45.05 12.66 44.57 12.96 44.09C13.32 43.61 13.65 43.13 13.95 42.65C14.31 42.17 14.73 41.66 15.21 41.12C15.75 40.52 16.26 40.01 16.74 39.59C17.28 39.11 17.73 38.78 18.09 38.6C18.51 38.36 18.78 38.36 18.9 38.6C18.96 38.66 18.9 38.81 18.72 39.05C18.6 39.29 18.42 39.59 18.18 39.95C17.94 40.25 17.7 40.55 17.46 40.85C17.28 41.09 17.16 41.27 17.1 41.39C16.44 42.23 15.96 42.98 15.66 43.64C15.36 44.24 15.06 44.87 14.76 45.53ZM49.23 69.92C49.11 70.04 48.93 70.07 48.69 70.01C48.51 69.89 48.3 69.77 48.06 69.65C46.32 68.87 44.67 67.91 43.11 66.77C41.61 65.63 40.14 64.4 38.7 63.08C37.26 61.76 35.82 60.41 34.38 59.03C33 57.59 31.59 56.18 30.15 54.8C29.13 53.84 28.05 52.85 26.91 51.83C25.77 50.81 24.6 49.88 23.4 49.04C22.2 48.14 20.94 47.39 19.62 46.79C18.36 46.13 17.07 45.71 15.75 45.53C16.53 44.39 17.79 43.1 19.53 41.66C21.27 40.22 23.16 38.81 25.2 37.43C27.24 36.05 29.25 34.73 31.23 33.47C33.21 32.21 34.83 31.19 36.09 30.41C38.19 29.09 40.29 27.68 42.39 26.18C44.55 24.68 46.53 22.85 48.33 20.69C48.51 20.45 48.69 20.36 48.87 20.42C48.87 20.54 48.84 20.66 48.78 20.78C48.72 20.84 48.69 20.93 48.69 21.05C48.39 22.55 47.49 24.14 45.99 25.82C44.55 27.44 42.9 29 41.04 30.5C39.18 32 37.29 33.41 35.37 34.73C33.45 35.99 31.92 37.01 30.78 37.79C29.7 38.51 28.56 39.2 27.36 39.86C26.22 40.52 25.05 41.18 23.85 41.84C22.65 42.44 21.48 43.01 20.34 43.55C19.26 44.03 18.24 44.48 17.28 44.9C18.84 44.9 20.61 45.38 22.59 46.34C24.63 47.3 26.64 48.47 28.62 49.85C30.6 51.17 32.43 52.58 34.11 54.08C35.79 55.52 37.08 56.72 37.98 57.68C39.9 59.78 41.79 61.82 43.65 63.8C45.57 65.78 47.25 67.49 48.69 68.93C49.17 69.41 49.35 69.74 49.23 69.92ZM12.33 6.01999C13.17 8.9 13.44 11.9 13.14 15.02C12.84 18.08 12.24 21.23 11.34 24.47C10.5 27.71 9.54 31.01 8.46 34.37C7.38 37.73 6.45 41.06 5.67 44.36C5.19 46.46 4.8 48.65 4.5 50.93C4.26 53.21 4.17 55.52 4.23 57.86C4.35 60.14 4.62 62.39 5.04 64.61C5.52 66.77 6.27 68.78 7.29 70.64C7.53 71.12 7.62 71.36 7.56 71.36C7.44 71.36 7.32 71.3 7.2 71.18C7.08 71.06 6.99 71 6.93 71C5.25 69.02 4.02 66.89 3.24 64.61C2.46 62.27 1.98 59.87 1.8 57.41C1.62 54.95 1.68 52.46 1.98 49.94C2.34 47.42 2.79 44.96 3.33 42.56C4.11 39.26 5.01 35.99 6.03 32.75C7.05 29.45 7.98 26.27 8.82 23.21C9.72 20.09 10.47 17.09 11.07 14.21C11.67 11.33 11.94 8.57 11.88 5.93C11.88 5.57 11.91 5.39 11.97 5.39C12.03 5.33 12.09 5.42 12.15 5.66C12.27 5.84 12.33 5.96 12.33 6.01999ZM54.9 72.8C54.9 72.92 54.84 73.01 54.72 73.07C54.6 73.13 54.48 73.19 54.36 73.25C52.08 74.09 49.86 74.45 47.7 74.33C45.6 74.27 43.53 73.91 41.49 73.25C39.51 72.65 37.59 71.84 35.73 70.82C33.93 69.8 32.22 68.78 30.6 67.76C28.98 66.74 27.42 65.57 25.92 64.25C24.42 62.93 22.95 61.58 21.51 60.2C20.07 58.82 18.63 57.47 17.19 56.15C15.81 54.83 14.43 53.66 13.05 52.64L10.26 62C10.14 62.3 10.02 62.57 9.9 62.81C9.84 63.05 9.75 63.14 9.63 63.08C9.51 63.02 9.42 62.87 9.36 62.63C9.36 62.33 9.36 62.03 9.36 61.73C9.42 59.99 9.57 58.22 9.81 56.42C10.05 54.62 10.35 52.82 10.71 51.02C10.35 50.78 9.9 50.51 9.36 50.21C8.82 49.91 8.31 49.61 7.83 49.31C7.71 49.25 7.56 49.16 7.38 49.04C7.2 48.86 7.14 48.71 7.2 48.59C7.2 48.53 7.35 48.5 7.65 48.5C9.81 48.68 11.91 49.4 13.95 50.66C16.05 51.86 18.12 53.33 20.16 55.07C22.26 56.75 24.36 58.58 26.46 60.56C28.56 62.54 30.75 64.43 33.03 66.23C35.91 68.45 39.21 70.19 42.93 71.45C46.65 72.77 50.43 73.19 54.27 72.71C54.69 72.59 54.9 72.62 54.9 72.8ZM10.08 71.36C9.96 71.36 9.78 71.3 9.54 71.18C9.42 71.12 9.33 71.03 9.27 70.91C8.49 70.01 7.86 69.17 7.38 68.39C6.96 67.61 6.6 66.35 6.3 64.61C6.18 63.95 6.09 63.11 6.03 62.09C6.03 61.07 6.06 60.08 6.12 59.12C6.18 58.16 6.27 57.35 6.39 56.69C6.57 56.03 6.78 55.7 7.02 55.7C7.08 55.7 7.14 55.85 7.2 56.15C7.32 56.45 7.41 56.81 7.47 57.23C7.53 57.59 7.56 57.98 7.56 58.4C7.62 58.76 7.65 59 7.65 59.12C7.77 60.44 7.86 61.52 7.92 62.36C8.04 63.2 8.16 63.95 8.28 64.61C8.58 66.53 9.18 68.54 10.08 70.64C10.14 70.76 10.17 70.91 10.17 71.09C10.23 71.27 10.2 71.36 10.08 71.36ZM42.66 69.56C43.08 69.62 43.59 69.74 44.19 69.92C44.85 70.04 45.36 70.16 45.72 70.28C47.28 70.7 48.57 71 49.59 71.18C50.67 71.42 51.93 71.57 53.37 71.63C53.49 71.63 53.64 71.63 53.82 71.63C54.06 71.63 54.18 71.69 54.18 71.81C54.18 72.05 53.88 72.2 53.28 72.26C52.56 72.38 51.93 72.44 51.39 72.44C50.85 72.44 50.16 72.41 49.32 72.35C48.84 72.29 48.27 72.2 47.61 72.08C46.95 71.96 46.29 71.78 45.63 71.54C44.97 71.36 44.34 71.18 43.74 71C43.2 70.76 42.81 70.52 42.57 70.28C42.33 70.04 42.24 69.83 42.3 69.65C42.3 69.59 42.42 69.56 42.66 69.56Z" fill="#210B51"/>
<path d="M43.8687 38.8286C45.1458 40.0932 46.5017 40.25 47.5284 39.9127L47.592 39.9757L46.4848 41.0938L48.3288 42.9198L53.723 37.4725C55.8534 35.3211 54.7396 32.9378 53.187 31.4004C51.4754 29.7055 49.4057 29.1672 47.5125 30.2312L49.0517 32.2591C49.7934 31.8916 50.8062 31.9499 51.7441 32.8787C52.6343 33.7602 52.6706 34.6987 51.8782 35.4988L51.8468 35.5306C51.301 36.0817 50.6972 35.5362 49.109 34.2679C47.362 32.8738 45.3848 31.8499 43.5693 33.6834C41.9846 35.2837 42.3161 37.2911 43.8687 38.8286ZM45.7626 37.9123C44.9624 37.12 44.7522 36.1876 45.4501 35.4829C46.1795 34.7463 47.125 35.0739 48.1041 35.8021C48.6757 36.2317 49.8084 37.1015 50.2569 37.1467L49.3071 38.1059C48.4099 39.012 46.9177 39.0562 45.7626 37.9123ZM53.6505 48.5045C55.6959 50.5299 58.2011 50.6073 60.0495 49.0162L58.216 47.2007C57.186 47.9123 56.0569 47.7913 55.2144 46.957C54.0168 45.7711 54.2349 44.0035 55.8825 42.3397C57.5092 40.697 59.2747 40.4932 60.4564 41.6634C61.3784 42.5764 61.3577 43.7313 60.7295 44.6625L62.5629 46.478C64.1778 44.5823 63.9492 42.0575 61.9621 40.0898C59.5775 37.7286 56.3673 37.9605 53.9063 40.4457C51.4663 42.9097 51.2183 46.096 53.6505 48.5045ZM58.8698 53.3579L60.788 55.2574L63.8262 52.1893L64.7641 53.1181L63.9568 58.3953L66.2777 60.6936L67.3342 53.5326L74.3057 52.5229L71.9954 50.2351L66.2939 51.0962L65.5945 50.4036L68.8478 47.1182L66.9296 45.2187L58.8698 53.3579ZM69.5448 64.2541C70.8218 65.5187 72.1778 65.6756 73.2045 65.3383L73.268 65.4013L72.1609 66.5194L74.0049 68.3454L79.3991 62.8981C81.5295 60.7467 80.4157 58.3634 78.8631 56.8259C77.1515 55.1311 75.0818 54.5928 73.1886 55.6567L74.7278 57.6847C75.4695 57.3172 76.4823 57.3755 77.4202 58.3042C78.3104 59.1858 78.3467 60.1242 77.5543 60.9244L77.5228 60.9562C76.9771 61.5073 76.3733 60.9618 74.7851 59.6935C73.0381 58.2994 71.0609 57.2755 69.2454 59.1089C67.6607 60.7092 67.9922 62.7167 69.5448 64.2541ZM71.4387 63.3379C70.6385 62.5455 70.4283 61.6132 71.1262 60.9084C71.8556 60.1719 72.8011 60.4995 73.7802 61.2276C74.3518 61.6572 75.4845 62.527 75.933 62.5723L74.9832 63.5314C74.0859 64.4375 72.5938 64.4818 71.4387 63.3379ZM72.8728 71.9051L74.7592 73.7731L77.0995 71.4098L82.425 76.6833L80.0847 79.0466L81.9393 80.8832L85.8433 76.9407L84.5821 75.6919L91.0782 69.1318L85.1964 63.3073L82.1402 65.9273C80.1815 67.598 78.6421 68.7498 77.4232 68.6029L76.7768 67.9627L72.8728 71.9051ZM79.3944 70.5548C80.6588 70.3061 82.0669 69.2656 83.9101 67.6799L85.3281 66.5023L87.7126 68.8635L82.7487 73.8763L79.3944 70.5548Z" fill="#210B51"/>
<path d="M35.989 42.9692C34.6915 44.4987 34.6515 46.4813 36.4014 48.2398C38.2004 50.0477 40.6229 49.8743 42.681 47.8264L43.3506 47.1601C45.4122 45.1086 45.587 42.6412 43.7845 40.8298C42.0135 39.0502 40.041 39.2035 38.4911 40.4653L39.7991 41.7797C40.7572 41.0017 41.661 40.8738 42.6955 41.9134C43.7511 42.9742 43.5122 44.3341 42.1834 45.7264L39.7217 43.2525L38.6468 44.3221L41.1016 46.789C39.8262 47.9319 38.5387 48.2521 37.4692 47.1773C36.4803 46.1835 36.4896 45.2554 37.297 44.2836L35.989 42.9692ZM40.2252 51.8851L40.6179 52.2798C41.7752 53.4427 43.1153 53.1542 45.0037 51.4433L46.8323 49.792L48.3788 51.3462L44.0125 55.6911L45.2399 56.9245L50.6528 51.5381L46.7252 47.5911L44.2342 49.8806C42.6557 51.3321 42.0118 51.5801 41.4542 51.0198L41.2683 50.833L40.2252 51.8851ZM48.797 60.7106C50.0524 61.9722 51.5318 62.2255 52.6972 61.5147L51.6458 60.1903C51.0158 60.4735 50.3554 60.2891 49.8083 59.7393C48.9877 58.9147 48.9869 57.8284 49.9032 56.8955L53.6555 60.6663L54.0466 60.277C55.9461 58.3869 55.6451 56.414 54.3196 55.0819C52.7766 53.5313 50.6318 53.6526 48.9614 55.3148C47.2628 57.0051 47.1734 59.079 48.797 60.7106ZM50.7666 56.0434C51.4959 55.3948 52.5858 55.3272 53.3433 56.0884C54.0727 56.8214 54.028 57.8478 53.2985 58.5878L50.7666 56.0434ZM52.3718 64.0916L53.6413 65.3673L55.6817 63.3369L56.3024 63.9606L55.7384 67.4747L57.2743 69.0182L58.0137 64.2496L62.6663 63.6106L61.1373 62.0742L57.3322 62.6202L56.8693 62.1551L59.0543 59.9809L57.7848 58.7051L52.3718 64.0916ZM62.0659 65.1006L63.8087 66.8521L59.4424 71.197L60.6698 72.4304L65.0361 68.0855L66.779 69.837L67.8256 68.7954L63.1125 64.0591L62.0659 65.1006ZM61.3936 77.2176L62.6631 78.4933L65.5458 75.6248L65.5984 75.6776C65.4036 76.2713 65.2676 77.2412 66.1934 78.1715C67.4629 79.4473 69.4246 79.3958 71.2078 77.6214C73.0121 75.8259 73.0134 73.8678 71.7685 72.6168C70.8182 71.6617 69.8475 71.8351 69.2634 72.0306L69.1898 71.9565L70.0849 71.0658L68.8365 69.8112L61.3936 77.2176ZM67.3749 73.7555C68.4251 72.7105 69.5541 72.4848 70.3712 73.3059C71.2163 74.1552 70.9287 75.311 69.9208 76.314C68.9059 77.3239 67.724 77.6163 66.8859 76.7741C66.0758 75.96 66.3247 74.8005 67.3749 73.7555ZM71.8393 83.8664C73.4174 85.4522 75.5374 85.3484 77.2114 83.6827C78.8888 82.0135 79.0065 79.8904 77.4285 78.3046C75.8504 76.7188 73.7268 76.826 72.0494 78.4953C70.3754 80.161 70.2613 82.2806 71.8393 83.8664ZM72.8683 82.8565C71.9951 81.979 72.3496 80.7705 73.3399 79.7851C74.3302 78.7997 75.5509 78.4406 76.4241 79.3181C77.2833 80.1815 76.9182 81.4005 75.9279 82.3859C74.9376 83.3713 73.7275 83.7199 72.8683 82.8565Z" fill="#210B51"/>
</svg>
